<svg width="134" height="76" viewBox="0 0 134 76" fill="none" xmlns="http://www.w3.org/2000/svg">
<mask id="mask0_880_5636" style="mask-type:luminance" maskUnits="userSpaceOnUse" x="40" y="0" width="53" height="48">
<path d="M66.6972 13.7042C67.2169 14.693 67.8504 15.6959 68.4183 16.6653C68.4445 16.6722 68.4707 16.6791 68.4969 16.686C67.687 17.1536 66.877 17.6213 66.0671 18.0889C68.0302 18.9246 69.9933 19.7603 71.9564 20.5961C73.9196 21.4318 75.8827 22.2676 77.8458 23.1033C78.1035 20.9853 78.3613 18.8674 78.6191 16.7494C78.8769 14.6314 79.1347 12.5134 79.3925 10.3954C78.6248 10.8386 77.8571 11.2819 77.0895 11.7251C75.4887 8.52197 73.8878 5.31891 72.287 2.11584C70.946 -0.571548 63.6911 -1.03247 61.4412 2.69793C61.4412 2.69793 53.8571 15.9858 53.1444 17.2202C56.0251 18.8834 58.9058 20.5465 61.7865 22.2097L66.6972 13.7042ZM79.937 35.1788C78.82 35.196 77.6392 35.3082 76.5177 35.3771C76.4998 35.3973 76.4818 35.4176 76.4638 35.4379C76.4124 34.504 76.361 33.5702 76.3095 32.6364C74.6773 34.0104 73.0451 35.3845 71.4128 36.7586C69.7805 38.1326 68.1483 39.5067 66.516 40.8808C68.2893 42.0673 70.0625 43.2538 71.8358 44.4403C73.6091 45.6269 75.3824 46.8134 77.1556 48C77.1069 47.1149 77.0581 46.2298 77.0093 45.3447C80.5901 45.363 84.1709 45.3814 87.7517 45.3997C90.7551 45.4169 94.4428 39.1522 92.1306 35.4601C92.1306 35.4601 83.7002 22.6924 82.9208 21.4991C80.1359 23.3181 77.351 25.1372 74.5661 26.9562L79.937 35.1788ZM46.868 27.4655C44.8945 30.4534 42.921 33.4412 40.9475 36.4292C39.2906 38.9342 42.5189 45.4476 46.8745 45.5309C46.8745 45.5309 55.5009 45.4881 60.4023 45.4667C62.0283 45.4596 63.2444 45.4549 63.5995 45.4549C63.5995 42.1286 63.5995 38.8023 63.5995 35.4759H53.7781C54.3746 34.5314 54.9264 33.4814 55.4821 32.5048C55.4749 32.4787 55.4678 32.4526 55.4606 32.4265C56.2706 32.8941 57.0805 33.3617 57.8904 33.8293C57.6327 31.7114 57.3749 29.5933 57.1171 27.4753C56.8593 25.3574 56.6015 23.2393 56.3437 21.1214C54.3806 21.9571 52.4175 22.7928 50.4544 23.6286C48.4912 24.4644 46.5281 25.3001 44.565 26.1359C45.3327 26.579 46.1004 27.0223 46.868 27.4655Z" fill="white"/>
</mask>
<g mask="url(#mask0_880_5636)">
<path d="M95.6522 -1H40.5V48.0325H95.6522V-1Z" fill="url(#paint0_linear_880_5636)"/>
</g>
<path fill-rule="evenodd" clip-rule="evenodd" d="M71.9563 20.596C73.9194 21.4318 75.8825 22.2676 77.8456 23.1033C78.1034 20.9853 78.3612 18.8673 78.6189 16.7494C78.8767 14.6314 79.1345 12.5134 79.3923 10.3954C78.6247 10.8386 77.857 11.2818 77.0893 11.7251C71.0829 4.8474 66.697 13.7042 66.697 13.7042C67.2167 14.693 67.8502 15.6959 68.4181 16.6653C68.4443 16.6721 68.4705 16.6791 68.4967 16.686C67.6868 17.1536 66.8768 17.6212 66.0669 18.0888C68.0301 18.9246 69.9932 19.7603 71.9563 20.596Z" fill="#106B60"/>
<path fill-rule="evenodd" clip-rule="evenodd" d="M57.8904 33.8293C57.6326 31.7113 57.3748 29.5933 57.117 27.4753C56.8593 25.3573 56.6015 23.2393 56.3437 21.1213C54.3806 21.9571 52.4174 22.7928 50.4543 23.6286C48.4912 24.4644 46.5281 25.3001 44.5649 26.1359C45.3326 26.579 46.1003 27.0223 46.868 27.4655C43.915 36.106 53.7781 35.4759 53.7781 35.4759C54.3745 34.5315 54.9263 33.4814 55.482 32.5048C55.4749 32.4787 55.4677 32.4526 55.4605 32.4265C56.2705 32.894 57.0805 33.3616 57.8904 33.8293Z" fill="#106B60"/>
<path fill-rule="evenodd" clip-rule="evenodd" d="M71.4127 36.7586C69.7804 38.1327 68.1481 39.5068 66.5159 40.8808C68.2891 42.0673 70.0624 43.2539 71.8356 44.4404C73.6089 45.6269 75.3822 46.8135 77.1555 48C77.1067 47.1149 77.0579 46.2298 77.0092 45.3447C77.1647 45.3455 77.3202 45.3463 77.4758 45.3471C85.9411 42.8154 79.9368 35.1788 79.9368 35.1788C78.8199 35.196 77.639 35.3082 76.5176 35.3771C76.4996 35.3974 76.4816 35.4176 76.4636 35.4379C76.4123 34.5041 76.3608 33.5702 76.3094 32.6364C74.6771 34.0105 73.0449 35.3846 71.4127 36.7586Z" fill="#106B60"/>
<path fill-rule="evenodd" clip-rule="evenodd" d="M53.1443 17.2202C53.1443 17.2202 65.9317 -2.27556 74.6881 6.92049C73.8877 5.31891 73.0873 3.7174 72.2868 2.11584C70.9458 -0.571548 63.6909 -1.03247 61.441 2.69793C61.441 2.69793 53.857 15.9858 53.1443 17.2202Z" fill="#106B60"/>
<path fill-rule="evenodd" clip-rule="evenodd" d="M82.9182 21.4995C82.9182 21.4995 94.5394 41.7121 82.3804 45.3727C84.1708 45.3817 85.9611 45.3907 87.7516 45.3997C90.7549 45.4166 94.442 39.1515 92.1295 35.4596C92.1295 35.4596 83.6978 22.6928 82.9182 21.4995Z" fill="#106B60"/>
<path fill-rule="evenodd" clip-rule="evenodd" d="M63.5993 45.4424C63.5993 45.4424 40.3209 44.1336 43.8975 31.9496C42.9119 33.4443 41.9262 34.939 40.9406 36.4336C39.2856 38.9399 42.5188 45.4509 46.8744 45.5309C46.8744 45.5309 62.174 45.4435 63.5993 45.4424Z" fill="#106B60"/>
<path fill-rule="evenodd" clip-rule="evenodd" d="M55.4605 32.4265C46.2761 34.2989 46.8679 27.4655 46.8679 27.4655C43.9149 36.106 53.778 35.4759 53.778 35.4759C54.3745 34.5315 54.9263 33.4814 55.4819 32.5048C55.4748 32.4787 55.4676 32.4526 55.4605 32.4265Z" fill="#005B50"/>
<path fill-rule="evenodd" clip-rule="evenodd" d="M76.4637 35.4379C83.0542 42.1032 77.0095 45.3448 77.0095 45.3448C85.8584 43.0917 79.9369 35.1788 79.9369 35.1788C78.82 35.1959 77.6391 35.3083 76.5177 35.3771C76.4997 35.3974 76.4817 35.4177 76.4637 35.4379Z" fill="#005B50"/>
<path fill-rule="evenodd" clip-rule="evenodd" d="M68.4969 16.686C71.4675 7.79583 77.0895 11.725 77.0895 11.725C71.083 4.84741 66.6973 13.7042 66.6973 13.7042C67.2169 14.693 67.8505 15.6959 68.4183 16.6654C68.4445 16.6723 68.4707 16.6791 68.4969 16.686Z" fill="#005B50"/>
<path d="M9.476 70.12C8.34 70.12 7.284 69.88 6.308 69.4C5.332 68.904 4.484 68.24 3.764 67.408C3.044 66.576 2.484 65.648 2.084 64.624C1.7 63.6 1.508 62.544 1.508 61.456C1.508 60.304 1.7 59.216 2.084 58.192C2.484 57.152 3.036 56.232 3.74 55.432C4.444 54.632 5.276 54 6.236 53.536C7.196 53.072 8.244 52.84 9.38 52.84C11.06 52.84 12.428 53.184 13.484 53.872C14.54 54.56 15.34 55.456 15.884 56.56L14.588 57.424C14.044 56.368 13.316 55.592 12.404 55.096C11.492 54.6 10.476 54.352 9.356 54.352C8.412 54.352 7.556 54.552 6.788 54.952C6.036 55.352 5.388 55.888 4.844 56.56C4.3 57.232 3.884 57.992 3.596 58.84C3.324 59.688 3.188 60.568 3.188 61.48C3.188 62.44 3.348 63.352 3.668 64.216C3.988 65.064 4.444 65.824 5.036 66.496C5.628 67.152 6.308 67.672 7.076 68.056C7.86 68.424 8.7 68.608 9.596 68.608C10.636 68.608 11.62 68.352 12.548 67.84C13.476 67.312 14.364 66.504 15.212 65.416V67.192C13.596 69.144 11.684 70.12 9.476 70.12ZM14.948 62.92H11.156V61.624H16.364V70H14.948V62.92ZM25.7197 58.936C24.6317 58.968 23.6717 59.272 22.8397 59.848C22.0237 60.424 21.4477 61.216 21.1117 62.224V70H19.4797V57.496H21.0157V60.496C21.4477 59.616 22.0157 58.904 22.7197 58.36C23.4397 57.816 24.1997 57.512 24.9997 57.448C25.1597 57.432 25.2957 57.424 25.4077 57.424C25.5357 57.424 25.6397 57.432 25.7197 57.448V58.936ZM32.8953 70.24C31.9993 70.24 31.1673 70.072 30.3993 69.736C29.6313 69.384 28.9673 68.912 28.4073 68.32C27.8473 67.712 27.4073 67.016 27.0873 66.232C26.7833 65.448 26.6313 64.608 26.6313 63.712C26.6313 62.544 26.8953 61.472 27.4233 60.496C27.9673 59.52 28.7113 58.744 29.6553 58.168C30.5993 57.576 31.6713 57.28 32.8713 57.28C34.1033 57.28 35.1753 57.576 36.0873 58.168C37.0153 58.76 37.7433 59.544 38.2713 60.52C38.7993 61.48 39.0633 62.536 39.0633 63.688C39.0633 63.816 39.0633 63.944 39.0633 64.072C39.0633 64.184 39.0553 64.272 39.0393 64.336H28.3353C28.4153 65.232 28.6633 66.032 29.0793 66.736C29.5113 67.424 30.0633 67.976 30.7353 68.392C31.4233 68.792 32.1673 68.992 32.9673 68.992C33.7833 68.992 34.5513 68.784 35.2713 68.368C36.0073 67.952 36.5193 67.408 36.8073 66.736L38.2233 67.12C37.9673 67.712 37.5753 68.248 37.0473 68.728C36.5193 69.208 35.8953 69.584 35.1753 69.856C34.4713 70.112 33.7113 70.24 32.8953 70.24ZM28.2873 63.16H37.5273C37.4633 62.248 37.2153 61.448 36.7833 60.76C36.3673 60.072 35.8153 59.536 35.1273 59.152C34.4553 58.752 33.7113 58.552 32.8953 58.552C32.0793 58.552 31.3353 58.752 30.6633 59.152C29.9913 59.536 29.4393 60.08 29.0073 60.784C28.5913 61.472 28.3513 62.264 28.2873 63.16ZM46.9813 70.24C46.0853 70.24 45.2533 70.072 44.4853 69.736C43.7173 69.384 43.0533 68.912 42.4933 68.32C41.9333 67.712 41.4933 67.016 41.1733 66.232C40.8693 65.448 40.7173 64.608 40.7173 63.712C40.7173 62.544 40.9813 61.472 41.5093 60.496C42.0533 59.52 42.7973 58.744 43.7413 58.168C44.6853 57.576 45.7573 57.28 46.9573 57.28C48.1893 57.28 49.2613 57.576 50.1733 58.168C51.1013 58.76 51.8293 59.544 52.3573 60.52C52.8853 61.48 53.1493 62.536 53.1493 63.688C53.1493 63.816 53.1493 63.944 53.1493 64.072C53.1493 64.184 53.1413 64.272 53.1253 64.336H42.4213C42.5013 65.232 42.7493 66.032 43.1653 66.736C43.5973 67.424 44.1493 67.976 44.8213 68.392C45.5093 68.792 46.2533 68.992 47.0533 68.992C47.8693 68.992 48.6373 68.784 49.3573 68.368C50.0933 67.952 50.6053 67.408 50.8933 66.736L52.3093 67.12C52.0533 67.712 51.6613 68.248 51.1333 68.728C50.6053 69.208 49.9813 69.584 49.2613 69.856C48.5573 70.112 47.7973 70.24 46.9813 70.24ZM42.3733 63.16H51.6133C51.5493 62.248 51.3013 61.448 50.8693 60.76C50.4533 60.072 49.9013 59.536 49.2133 59.152C48.5413 58.752 47.7973 58.552 46.9813 58.552C46.1653 58.552 45.4213 58.752 44.7493 59.152C44.0773 59.536 43.5253 60.08 43.0933 60.784C42.6773 61.472 42.4373 62.264 42.3733 63.16ZM66.1792 70H64.5472V63.016C64.5472 61.544 64.3312 60.472 63.8992 59.8C63.4672 59.112 62.7872 58.768 61.8592 58.768C61.2192 58.768 60.5872 58.928 59.9632 59.248C59.3392 59.552 58.7872 59.976 58.3072 60.52C57.8432 61.048 57.5072 61.656 57.2992 62.344V70H55.6672V57.496H57.1552V60.328C57.4912 59.72 57.9312 59.192 58.4752 58.744C59.0192 58.28 59.6352 57.92 60.3232 57.664C61.0112 57.408 61.7232 57.28 62.4592 57.28C63.1472 57.28 63.7312 57.408 64.2112 57.664C64.6912 57.92 65.0752 58.288 65.3632 58.768C65.6512 59.232 65.8592 59.8 65.9872 60.472C66.1152 61.128 66.1792 61.864 66.1792 62.68V70Z" fill="#122F3B"/>
<path d="M68.6034 61.36C68.6034 60.32 68.7874 59.304 69.1554 58.312C69.5394 57.304 70.0914 56.392 70.8114 55.576C71.5314 54.744 72.4114 54.088 73.4514 53.608C74.4914 53.112 75.6754 52.864 77.0034 52.864C78.5714 52.864 79.9234 53.208 81.0594 53.896C82.2114 54.584 83.0674 55.48 83.6274 56.584L81.0834 58.336C80.7954 57.696 80.4194 57.192 79.9554 56.824C79.4914 56.44 78.9954 56.176 78.4674 56.032C77.9394 55.872 77.4194 55.792 76.9074 55.792C76.0754 55.792 75.3474 55.96 74.7234 56.296C74.1154 56.632 73.6034 57.072 73.1874 57.616C72.7714 58.16 72.4594 58.768 72.2514 59.44C72.0594 60.112 71.9634 60.784 71.9634 61.456C71.9634 62.208 72.0834 62.936 72.3234 63.64C72.5634 64.328 72.8994 64.944 73.3314 65.488C73.7794 66.016 74.3074 66.44 74.9154 66.76C75.5394 67.064 76.2194 67.216 76.9554 67.216C77.4834 67.216 78.0194 67.128 78.5634 66.952C79.1074 66.776 79.6114 66.496 80.0754 66.112C80.5394 65.728 80.8994 65.232 81.1554 64.624L83.8674 66.184C83.5314 67.032 82.9794 67.752 82.2114 68.344C81.4594 68.936 80.6114 69.384 79.6674 69.688C78.7234 69.992 77.7874 70.144 76.8594 70.144C75.6434 70.144 74.5314 69.896 73.5234 69.4C72.5154 68.888 71.6434 68.216 70.9074 67.384C70.1874 66.536 69.6194 65.592 69.2034 64.552C68.8034 63.496 68.6034 62.432 68.6034 61.36ZM86.0405 72.448C86.3285 72.512 86.5925 72.568 86.8325 72.616C87.0885 72.664 87.3045 72.688 87.4805 72.688C87.7845 72.688 88.0325 72.608 88.2245 72.448C88.4325 72.304 88.6325 72.032 88.8245 71.632C89.0165 71.248 89.2165 70.704 89.4245 70L84.4565 57.424H87.7925L91.1765 66.712L94.1525 57.424H97.2245L91.9445 72.496C91.7525 73.056 91.4565 73.56 91.0565 74.008C90.6725 74.472 90.1845 74.832 89.5925 75.088C89.0165 75.36 88.3685 75.496 87.6485 75.496C87.3925 75.496 87.1365 75.472 86.8805 75.424C86.6245 75.392 86.3445 75.328 86.0405 75.232V72.448ZM104.406 70.24C103.382 70.24 102.462 70.072 101.646 69.736C100.83 69.384 100.134 68.904 99.5579 68.296C98.9819 67.672 98.5339 66.968 98.2139 66.184C97.9099 65.4 97.7579 64.576 97.7579 63.712C97.7579 62.528 98.0219 61.448 98.5499 60.472C99.0939 59.48 99.8619 58.688 100.854 58.096C101.846 57.504 103.022 57.208 104.382 57.208C105.742 57.208 106.91 57.504 107.886 58.096C108.862 58.688 109.59 59.464 110.07 60.424L106.926 61.384C106.654 60.92 106.294 60.568 105.846 60.328C105.398 60.072 104.902 59.944 104.358 59.944C103.75 59.944 103.19 60.104 102.678 60.424C102.182 60.728 101.79 61.168 101.502 61.744C101.214 62.304 101.07 62.96 101.07 63.712C101.07 64.448 101.214 65.104 101.502 65.68C101.806 66.24 102.206 66.688 102.702 67.024C103.198 67.344 103.75 67.504 104.358 67.504C104.742 67.504 105.102 67.44 105.438 67.312C105.79 67.184 106.102 67.008 106.374 66.784C106.646 66.56 106.846 66.304 106.974 66.016L110.118 66.976C109.83 67.6 109.406 68.16 108.846 68.656C108.302 69.152 107.654 69.544 106.902 69.832C106.166 70.104 105.334 70.24 104.406 70.24ZM112.073 52.48H115.289V65.968C115.289 66.544 115.385 66.936 115.577 67.144C115.769 67.336 116.033 67.432 116.369 67.432C116.625 67.432 116.889 67.4 117.161 67.336C117.433 67.272 117.673 67.192 117.881 67.096L118.313 69.544C117.881 69.752 117.377 69.912 116.801 70.024C116.225 70.136 115.705 70.192 115.241 70.192C114.233 70.192 113.449 69.928 112.889 69.4C112.345 68.856 112.073 68.088 112.073 67.096V52.48ZM125.546 70.24C124.538 70.24 123.626 70.072 122.81 69.736C121.994 69.384 121.298 68.912 120.722 68.32C120.146 67.712 119.698 67.024 119.378 66.256C119.074 65.472 118.922 64.648 118.922 63.784C118.922 62.584 119.186 61.488 119.714 60.496C120.258 59.504 121.026 58.712 122.018 58.12C123.026 57.512 124.21 57.208 125.57 57.208C126.946 57.208 128.122 57.512 129.098 58.12C130.074 58.712 130.818 59.504 131.33 60.496C131.858 61.472 132.122 62.528 132.122 63.664C132.122 63.856 132.114 64.056 132.098 64.264C132.082 64.456 132.066 64.616 132.05 64.744H122.33C122.394 65.384 122.578 65.944 122.882 66.424C123.202 66.904 123.602 67.272 124.082 67.528C124.578 67.768 125.106 67.888 125.666 67.888C126.306 67.888 126.906 67.736 127.466 67.432C128.042 67.112 128.434 66.696 128.642 66.184L131.402 66.952C131.098 67.592 130.658 68.16 130.082 68.656C129.522 69.152 128.858 69.544 128.09 69.832C127.322 70.104 126.474 70.24 125.546 70.24ZM122.258 62.704H128.834C128.77 62.064 128.586 61.512 128.282 61.048C127.994 60.568 127.61 60.2 127.13 59.944C126.65 59.672 126.114 59.536 125.522 59.536C124.946 59.536 124.418 59.672 123.938 59.944C123.474 60.2 123.09 60.568 122.786 61.048C122.498 61.512 122.322 62.064 122.258 62.704Z" fill="#295D54"/>
<defs>
<linearGradient id="paint0_linear_880_5636" x1="60.6864" y1="47.023" x2="77.006" y2="-4.89008" gradientUnits="userSpaceOnUse">
<stop stop-color="#009B90"/>
<stop offset="1" stop-color="#24BD29"/>
</linearGradient>
</defs>
</svg>
