<svg width="36" height="32" viewBox="0 0 36 32" fill="none" xmlns="http://www.w3.org/2000/svg">
<mask id="mask0_880_5670" style="mask-type:luminance" maskUnits="userSpaceOnUse" x="0" y="0" width="36" height="32">
<path d="M18.0126 9.13612C18.359 9.79535 18.7814 10.4639 19.16 11.1102C19.1774 11.1148 19.1949 11.1194 19.2123 11.124C18.6724 11.4357 18.1324 11.7475 17.5925 12.0592C18.9012 12.6164 20.21 13.1736 21.5187 13.7307C22.8275 14.2879 24.1362 14.8451 25.4449 15.4022C25.6168 13.9902 25.7886 12.5782 25.9605 11.1662C26.1323 9.75427 26.3042 8.34225 26.4761 6.93026C25.9643 7.22572 25.4525 7.52123 24.9407 7.81672C23.8735 5.68131 22.8063 3.54594 21.7391 1.41056C20.8451 -0.381032 16.0085 -0.688314 14.5085 1.79862C14.5085 1.79862 9.45251 10.6572 8.97739 11.4801C10.8978 12.5889 12.8183 13.6977 14.7387 14.8064L18.0126 9.13612ZM26.8391 23.4525C26.0944 23.464 25.3072 23.5388 24.5596 23.5847C24.5476 23.5982 24.5356 23.6117 24.5236 23.6252C24.4894 23.0027 24.4551 22.3801 24.4208 21.7576C23.3326 22.6736 22.2445 23.5897 21.1563 24.5057C20.0681 25.4217 18.9799 26.3378 17.8918 27.2539C19.074 28.0448 20.2561 28.8359 21.4383 29.6269C22.6205 30.4179 23.8027 31.2089 24.9848 32C24.9523 31.4099 24.9198 30.8198 24.8873 30.2298C27.2745 30.242 29.6617 30.2542 32.0489 30.2664C34.0511 30.2779 36.5096 26.1015 34.9682 23.64C34.9682 23.64 29.3479 15.1283 28.8283 14.3327C26.9717 15.5454 25.1151 16.7581 23.2585 17.9708L26.8391 23.4525ZM4.79311 18.3103C3.47741 20.3022 2.16175 22.2941 0.846088 24.2861C-0.258494 25.9561 1.89369 30.2984 4.7974 30.3539C4.7974 30.3539 10.5484 30.3254 13.8159 30.3111C14.8999 30.3064 15.7107 30.3033 15.9474 30.3033C15.9474 28.0857 15.9474 25.8682 15.9474 23.6506H9.39985C9.7975 23.021 10.1654 22.3209 10.5358 21.6699C10.531 21.6524 10.5263 21.6351 10.5215 21.6176C11.0615 21.9294 11.6014 22.2411 12.1414 22.5529C11.9695 21.1409 11.7977 19.7289 11.6258 18.3169C11.454 16.9049 11.2821 15.4929 11.1103 14.0809C9.8015 14.6381 8.49275 15.1952 7.18402 15.7524C5.87526 16.3096 4.56652 16.8667 3.25776 17.4239C3.76954 17.7193 4.28134 18.0148 4.79311 18.3103Z" fill="white"/>
</mask>
<g mask="url(#mask0_880_5670)">
<path d="M37.3158 -0.666672H0.547729V32.0216H37.3158V-0.666672Z" fill="url(#paint0_linear_880_5670)"/>
</g>
<path fill-rule="evenodd" clip-rule="evenodd" d="M21.5186 13.7307C22.8274 14.2879 24.1361 14.845 25.4449 15.4022C25.6167 13.9902 25.7886 12.5782 25.9604 11.1662C26.1323 9.75425 26.3041 8.34223 26.476 6.93025C25.9643 7.22571 25.4524 7.52122 24.9407 7.81671C20.9364 3.2316 18.0125 9.1361 18.0125 9.1361C18.359 9.7953 18.7813 10.4639 19.1599 11.1102C19.1774 11.1148 19.1948 11.1194 19.2123 11.124C18.6723 11.4357 18.1323 11.7475 17.5924 12.0592C18.9012 12.6164 20.2099 13.1735 21.5186 13.7307Z" fill="#106B60"/>
<path fill-rule="evenodd" clip-rule="evenodd" d="M12.1413 22.5528C11.9695 21.1409 11.7976 19.7288 11.6258 18.3169C11.4539 16.9049 11.282 15.4929 11.1102 14.0809C9.80143 14.638 8.49269 15.1952 7.18395 15.7524C5.87519 16.3096 4.56645 16.8667 3.25769 17.4239C3.76946 17.7193 4.28126 18.0149 4.79303 18.3103C2.82437 24.0707 9.39977 23.6506 9.39977 23.6506C9.79742 23.021 10.1653 22.3209 10.5357 21.6699C10.531 21.6524 10.5262 21.635 10.5214 21.6176C11.0614 21.9293 11.6014 22.2411 12.1413 22.5528Z" fill="#106B60"/>
<path fill-rule="evenodd" clip-rule="evenodd" d="M21.1562 24.5058C20.0681 25.4218 18.9799 26.3378 17.8917 27.2538C19.0739 28.0449 20.2561 28.8359 21.4382 29.6269C22.6204 30.4179 23.8026 31.209 24.9848 32C24.9523 31.4099 24.9198 30.8199 24.8873 30.2298C24.9909 30.2303 25.0946 30.2309 25.1984 30.2314C30.8419 28.5436 26.839 23.4525 26.839 23.4525C26.0944 23.464 25.3072 23.5388 24.5595 23.5847C24.5476 23.5982 24.5355 23.6117 24.5236 23.6252C24.4893 23.0027 24.455 22.3802 24.4207 21.7576C23.3326 22.6736 22.2444 23.5897 21.1562 24.5058Z" fill="#106B60"/>
<path fill-rule="evenodd" clip-rule="evenodd" d="M8.97736 11.4801C8.97736 11.4801 17.5023 -1.51704 23.3399 4.61365C22.8063 3.54594 22.2727 2.47827 21.7391 1.41056C20.845 -0.381032 16.0084 -0.688314 14.5085 1.79862C14.5085 1.79862 9.45247 10.6572 8.97736 11.4801Z" fill="#106B60"/>
<path fill-rule="evenodd" clip-rule="evenodd" d="M28.8265 14.333C28.8265 14.333 36.574 27.8081 28.468 30.2485C29.6616 30.2544 30.8552 30.2604 32.0488 30.2664C34.051 30.2777 36.5091 26.101 34.9674 23.6397C34.9674 23.6397 29.3463 15.1285 28.8265 14.333Z" fill="#106B60"/>
<path fill-rule="evenodd" clip-rule="evenodd" d="M15.9473 30.2949C15.9473 30.2949 0.428388 29.4224 2.81282 21.2997C2.15572 22.2962 1.49861 23.2926 0.8415 24.2891C-0.261804 25.9599 1.89364 30.3006 4.7974 30.3539C4.7974 30.3539 14.9971 30.2957 15.9473 30.2949Z" fill="#106B60"/>
<path fill-rule="evenodd" clip-rule="evenodd" d="M10.5214 21.6176C4.39851 22.8659 4.79304 18.3103 4.79304 18.3103C2.82439 24.0707 9.39978 23.6506 9.39978 23.6506C9.79743 23.021 10.1653 22.3209 10.5357 21.6699C10.531 21.6524 10.5262 21.635 10.5214 21.6176Z" fill="#005B50"/>
<path fill-rule="evenodd" clip-rule="evenodd" d="M24.5236 23.6253C28.9172 28.0688 24.8874 30.2298 24.8874 30.2298C30.7867 28.7278 26.839 23.4525 26.839 23.4525C26.0944 23.4639 25.3071 23.5388 24.5595 23.5847C24.5475 23.5982 24.5355 23.6118 24.5236 23.6253Z" fill="#005B50"/>
<path fill-rule="evenodd" clip-rule="evenodd" d="M19.2123 11.124C21.1927 5.19722 24.9407 7.81669 24.9407 7.81669C20.9364 3.23161 18.0126 9.13611 18.0126 9.13611C18.359 9.79531 18.7814 10.4639 19.1599 11.1102C19.1774 11.1148 19.1949 11.1194 19.2123 11.124Z" fill="#005B50"/>
<defs>
<linearGradient id="paint0_linear_880_5670" x1="14.0053" y1="31.3487" x2="24.885" y2="-3.26005" gradientUnits="userSpaceOnUse">
<stop stop-color="#009B90"/>
<stop offset="1" stop-color="#24BD29"/>
</linearGradient>
</defs>
</svg>
